<svg width="40.000000" height="40.000000" viewBox="0 0 40 40" fill="none" xmlns="http://www.w3.org/2000/svg" xmlns:xlink="http://www.w3.org/1999/xlink">
	<desc>
			Created with Pixso.
	</desc>
	<defs/>
	<rect id="ic_public_trash" rx="20.000000" width="40.000000" height="40.000000" fill="#000000" fill-opacity="0.047059"/>
	<mask id="mask117_10416" mask-type="alpha" maskUnits="userSpaceOnUse" x="8.000000" y="15.250000" width="24.000000" height="16.750000">
		<path id="蒙版" d="M32 15.25L8 15.25L8 32L32 32L32 15.25Z" fill="#C4C4C4" fill-opacity="1.000000" fill-rule="evenodd"/>
	</mask>
	<g mask="url(#mask117_10416)">
		<path id="path (边框)" d="M28.47 28.31L29.81 12.39L10.18 12.39L11.51 28.31C11.53 28.57 11.58 28.82 11.65 29.06C11.71 29.27 11.79 29.47 11.89 29.66C11.99 29.86 12.1 30.05 12.23 30.22C12.37 30.41 12.53 30.59 12.71 30.76C12.89 30.92 13.08 31.06 13.28 31.19C13.47 31.3 13.66 31.4 13.87 31.48C14.07 31.56 14.28 31.62 14.49 31.67C14.74 31.72 14.99 31.75 15.25 31.75L24.74 31.75C24.99 31.75 25.25 31.72 25.49 31.67C25.71 31.62 25.91 31.56 26.12 31.48C26.32 31.4 26.52 31.3 26.71 31.19C26.91 31.06 27.1 30.92 27.27 30.76C27.45 30.59 27.61 30.41 27.75 30.22C27.88 30.05 28 29.86 28.09 29.66C28.19 29.47 28.27 29.27 28.33 29.06C28.4 28.82 28.45 28.57 28.47 28.31ZM28.18 13.89L26.98 28.18C26.96 28.34 26.93 28.5 26.89 28.66C26.85 28.77 26.81 28.89 26.75 29C26.69 29.11 26.63 29.22 26.55 29.32C26.47 29.44 26.37 29.55 26.26 29.65C26.15 29.75 26.03 29.84 25.91 29.92C25.8 29.98 25.68 30.04 25.57 30.09C25.45 30.13 25.33 30.17 25.21 30.19C25.06 30.23 24.9 30.25 24.74 30.25L15.25 30.25C15.09 30.25 14.93 30.23 14.77 30.19C14.65 30.17 14.54 30.13 14.42 30.09C14.3 30.04 14.19 29.98 14.08 29.92C13.95 29.84 13.84 29.75 13.73 29.65C13.62 29.55 13.52 29.44 13.43 29.32C13.36 29.22 13.29 29.11 13.23 29C13.18 28.89 13.13 28.77 13.1 28.65C13.05 28.5 13.02 28.35 13.01 28.18L11.81 13.89L28.18 13.89Z" fill="#191919" fill-opacity="1.000000" fill-rule="evenodd"/>
	</g>
	<path id="path4 (边框)" d="M18.25 18.75L18.25 27.54C18.25 27.97 17.91 28.29 17.5 28.29C17.08 28.29 16.75 27.97 16.75 27.54L16.75 18.75C16.75 18.33 17.08 18 17.5 18C17.91 18 18.25 18.33 18.25 18.75ZM23.25 18.75C23.25 18.33 22.91 18 22.5 18C22.08 18 21.75 18.33 21.75 18.75L21.75 27.54C21.75 27.97 22.08 28.29 22.5 28.29C22.91 28.29 23.25 27.97 23.25 27.54L23.25 18.75Z" fill="#191919" fill-opacity="1.000000" fill-rule="evenodd"/>
	<path id="path5 (边框)" d="M14.41 12.26L9 12.26C8.58 12.26 8.25 12.59 8.25 13.01C8.25 13.43 8.58 13.76 9 13.76L14.93 13.76C15.09 13.76 15.23 13.72 15.36 13.63C15.49 13.54 15.58 13.42 15.64 13.27L16.65 10.56C16.7 10.43 16.76 10.32 16.84 10.22C16.92 10.12 17.01 10.04 17.11 9.97C17.22 9.9 17.32 9.84 17.44 9.8C17.56 9.76 17.69 9.75 17.83 9.75L22.05 9.75C22.19 9.75 22.32 9.77 22.44 9.81C22.55 9.84 22.66 9.9 22.76 9.97C22.87 10.04 22.95 10.12 23.03 10.22C23.11 10.32 23.17 10.43 23.22 10.56L24.23 13.27C24.29 13.42 24.38 13.54 24.51 13.63C24.64 13.72 24.78 13.76 24.93 13.76L31 13.76C31.41 13.76 31.75 13.43 31.75 13.01C31.75 12.59 31.41 12.26 31 12.26L25.46 12.26L24.62 10.04C24.57 9.89 24.5 9.75 24.43 9.62C24.36 9.51 24.29 9.4 24.21 9.3C24.13 9.19 24.04 9.09 23.94 9C23.84 8.9 23.73 8.82 23.62 8.73C23.5 8.66 23.39 8.59 23.27 8.53C23.14 8.47 23.01 8.41 22.88 8.37C22.76 8.33 22.63 8.3 22.51 8.28C22.36 8.26 22.21 8.25 22.05 8.25L17.83 8.25C17.67 8.25 17.52 8.26 17.37 8.28C17.24 8.3 17.12 8.33 17 8.37C16.87 8.41 16.74 8.46 16.62 8.52C16.49 8.58 16.37 8.65 16.26 8.73C16.14 8.81 16.04 8.9 15.94 8.99C15.84 9.09 15.75 9.19 15.66 9.3C15.59 9.39 15.52 9.49 15.46 9.59C15.38 9.73 15.31 9.88 15.25 10.03L14.41 12.26Z" fill="#191919" fill-opacity="1.000000" fill-rule="evenodd"/>
</svg>
