<svg width="24.000000" height="24.000000" viewBox="0 0 24 24" fill="none" xmlns="http://www.w3.org/2000/svg" xmlns:xlink="http://www.w3.org/1999/xlink">
	<desc>
			Created with Pixso.
	</desc>
	<defs/>
	<rect width="24.000000" height="24.000000" fill="#FFFFFF" fill-opacity="0"/>
	<mask id="mask117_10514" mask-type="alpha" maskUnits="userSpaceOnUse" x="3.000000" y="8.250000" width="18.000000" height="12.562500">
		<path d="M21 8.25L3 8.25L3 20.81L21 20.81L21 8.25Z" fill="#C4C4C4" fill-opacity="1.000000" fill-rule="evenodd"/>
	</mask>
	<g mask="url(#mask117_10514)">
		<path d="M18.35 18.04L19.36 6.11L4.63 6.11L5.63 18.04C5.65 18.24 5.68 18.42 5.74 18.61C5.78 18.76 5.84 18.91 5.92 19.06C5.99 19.21 6.08 19.35 6.17 19.48C6.28 19.62 6.4 19.76 6.53 19.88C6.67 20 6.81 20.11 6.96 20.2C7.1 20.29 7.24 20.36 7.4 20.42C7.55 20.48 7.71 20.53 7.87 20.56C8.05 20.6 8.24 20.62 8.44 20.62L15.55 20.62C15.74 20.62 15.93 20.6 16.12 20.56C16.28 20.53 16.43 20.48 16.59 20.42C16.74 20.36 16.89 20.29 17.03 20.2C17.18 20.11 17.32 20 17.45 19.88C17.59 19.76 17.71 19.62 17.81 19.48C17.91 19.35 18 19.21 18.07 19.06C18.14 18.91 18.2 18.76 18.25 18.61C18.3 18.42 18.34 18.24 18.35 18.04ZM18.13 7.23L17.23 17.95C17.22 18.07 17.2 18.19 17.16 18.3C17.14 18.39 17.1 18.48 17.06 18.56C17.02 18.64 16.97 18.73 16.91 18.8C16.85 18.89 16.78 18.97 16.69 19.05C16.61 19.13 16.52 19.19 16.43 19.25C16.35 19.3 16.26 19.34 16.17 19.38C16.09 19.41 16 19.44 15.91 19.46C15.79 19.48 15.67 19.5 15.55 19.5L8.44 19.5C8.31 19.5 8.19 19.48 8.08 19.46C7.99 19.44 7.9 19.41 7.81 19.38C7.72 19.34 7.64 19.3 7.56 19.25C7.46 19.19 7.38 19.13 7.29 19.05C7.21 18.97 7.14 18.89 7.07 18.8C7.02 18.73 6.97 18.64 6.92 18.56C6.88 18.48 6.85 18.39 6.82 18.3C6.79 18.19 6.76 18.07 6.75 17.95L5.86 7.23L18.13 7.23Z" fill="#FFFFFF" fill-opacity="1.000000" fill-rule="evenodd"/>
	</g>
	<path d="M10.68 10.87L10.68 17.47C10.68 17.79 10.43 18.03 10.12 18.03C9.81 18.03 9.56 17.79 9.56 17.47L9.56 10.87C9.56 10.56 9.81 10.31 10.12 10.31C10.43 10.31 10.68 10.56 10.68 10.87ZM14.43 10.87C14.43 10.56 14.18 10.31 13.87 10.31C13.56 10.31 13.31 10.56 13.31 10.87L13.31 17.47C13.31 17.79 13.56 18.03 13.87 18.03C14.18 18.03 14.43 17.79 14.43 17.47L14.43 10.87Z" fill="#FFFFFF" fill-opacity="1.000000" fill-rule="evenodd"/>
	<path d="M7.81 6.01L3.75 6.01C3.43 6.01 3.18 6.25 3.18 6.57C3.18 6.88 3.43 7.13 3.75 7.13L8.2 7.13C8.32 7.13 8.42 7.1 8.52 7.03C8.62 6.96 8.69 6.88 8.73 6.77L9.49 4.73C9.52 4.63 9.57 4.55 9.63 4.47C9.69 4.4 9.76 4.34 9.83 4.29C9.91 4.23 9.99 4.19 10.08 4.16C10.17 4.13 10.27 4.12 10.37 4.12L13.54 4.12C13.64 4.12 13.74 4.14 13.83 4.17C13.91 4.19 13.99 4.23 14.07 4.29C14.15 4.34 14.21 4.4 14.27 4.47C14.33 4.55 14.38 4.63 14.41 4.73L15.17 6.77C15.21 6.88 15.28 6.96 15.38 7.03C15.48 7.1 15.58 7.13 15.7 7.13L20.25 7.13C20.56 7.13 20.81 6.88 20.81 6.57C20.81 6.25 20.56 6.01 20.25 6.01L16.09 6.01L15.47 4.34C15.43 4.23 15.38 4.12 15.32 4.02C15.27 3.94 15.22 3.86 15.16 3.79C15.1 3.71 15.03 3.63 14.96 3.56C14.88 3.49 14.8 3.42 14.71 3.36C14.63 3.3 14.54 3.25 14.45 3.21C14.36 3.16 14.26 3.12 14.16 3.09C14.07 3.06 13.97 3.04 13.88 3.02C13.77 3 13.65 3 13.54 3L10.37 3C10.25 3 10.14 3 10.03 3.02C9.93 3.04 9.84 3.06 9.75 3.09C9.65 3.12 9.55 3.16 9.46 3.2C9.37 3.25 9.28 3.3 9.19 3.36C9.11 3.42 9.03 3.49 8.95 3.56C8.88 3.63 8.81 3.7 8.74 3.78C8.69 3.85 8.64 3.93 8.6 4C8.53 4.11 8.48 4.22 8.43 4.34L7.81 6.01Z" fill="#FFFFFF" fill-opacity="1.000000" fill-rule="evenodd"/>
</svg>
