<svg width="72.000000" height="72.000000" viewBox="0 0 72 72" fill="none" xmlns="http://www.w3.org/2000/svg" xmlns:xlink="http://www.w3.org/1999/xlink">
	<desc>
			Created with Pixso.
	</desc>
	<defs>
		<clipPath id="clip19_5259">
			<rect width="54.843750" height="54.843750" transform="translate(8.578125 8.578125)" fill="white" fill-opacity="0"/>
		</clipPath>
		<clipPath id="clip19_5260">
			<rect rx="16.000000" width="72.000000" height="72.000000" fill="white" fill-opacity="0"/>
		</clipPath>
	</defs>
	<rect rx="16.000000" width="72.000000" height="72.000000" fill="#4B5CC4" fill-opacity="1.000000"/>
	<g clip-path="url(#clip19_5260)">
		<g clip-path="url(#clip19_5259)">
			<path d="M55.5 31.15C56.41 31.15 57.14 31.9 57.14 32.82L57.14 40.28C57.14 40.39 57.13 40.49 57.11 40.6C57.09 40.71 57.06 40.81 57.02 40.91C56.98 41.01 56.92 41.11 56.86 41.2C56.8 41.29 56.74 41.38 56.66 41.45C56.58 41.53 56.5 41.6 56.41 41.66C56.32 41.72 56.23 41.77 56.13 41.82C56.03 41.86 55.92 41.89 55.82 41.91C55.71 41.93 55.61 41.94 55.5 41.94C55.39 41.94 55.28 41.93 55.18 41.91C55.07 41.89 54.97 41.86 54.87 41.82C54.77 41.77 54.67 41.72 54.58 41.66C54.5 41.6 54.41 41.53 54.34 41.45C54.26 41.38 54.19 41.29 54.13 41.2C54.07 41.11 54.02 41.01 53.98 40.91C53.94 40.81 53.91 40.71 53.89 40.6C53.87 40.49 53.86 40.39 53.86 40.28L53.86 32.82C53.86 31.9 54.59 31.15 55.5 31.15ZM37.34 15.48L55.49 24.23C56.53 24.73 57.16 25.73 57.14 26.84C57.12 27.95 56.47 28.93 55.42 29.4L37.26 37.54C37.06 37.63 36.86 37.7 36.64 37.74C36.43 37.79 36.22 37.81 36 37.81C35.78 37.81 35.56 37.79 35.35 37.74C35.14 37.7 34.93 37.63 34.73 37.54L16.55 29.4C15.51 28.93 14.85 27.95 14.83 26.84C14.82 25.73 15.45 24.73 16.48 24.23L34.66 15.48C35.48 15.08 36.51 15.08 37.34 15.48Z" fill="#B7C7FF" fill-opacity="1.000000" fill-rule="nonzero"/>
			<path d="M20.5898 35.8511L34.9854 42.5796C35.2311 42.6826 35.4844 42.7603 35.7452 42.813C36.0061 42.8652 36.2695 42.8916 36.5355 42.8916C36.8014 42.8916 37.0648 42.8652 37.3257 42.813C37.5865 42.7603 37.8398 42.6826 38.0856 42.5796L51.3599 36.0981L51.3599 44.604C50.0552 43.5752 48.4078 42.9609 46.6172 42.9609C42.3844 42.9609 38.9531 46.3921 38.9531 50.625C38.9531 51.8081 39.2211 52.9282 39.6997 53.9287L36.924 54.7896C36.7745 54.8584 36.6195 54.9106 36.4589 54.9458C36.2983 54.981 36.1359 54.998 35.9716 54.998C35.8073 54.9976 35.6449 54.9795 35.4844 54.9438C35.324 54.9077 35.1692 54.855 35.0199 54.7856L22.7112 50.1841C22.5552 50.1118 22.4049 50.0283 22.2606 49.9341C22.1162 49.8403 21.979 49.7363 21.8492 49.6226C21.7194 49.5088 21.598 49.3867 21.4852 49.2554C21.3724 49.1245 21.2694 48.9858 21.1759 48.8403C21.0825 48.6943 20.9998 48.5425 20.9275 48.3853C20.8552 48.2275 20.7943 48.0654 20.7448 47.8989C20.7218 47.8218 20.7014 47.7441 20.6835 47.666L20.6835 47.666C20.6627 47.5752 20.6454 47.4839 20.6315 47.3916C20.6056 47.2197 20.5917 47.0474 20.5898 46.8735L20.5898 35.8511Z" clip-rule="evenodd" fill="#FFFFFF" fill-opacity="0.400000" fill-rule="evenodd"/>
			<rect rx="6.117188" width="12.234375" height="12.234375" transform="translate(40.640625 44.507812)" fill="#FFFFFF" fill-opacity="1.000000"/>
			<path d="M45.37 53.19L44.57 52.39L47.62 49.34L48.42 50.14L45.37 53.19Z" fill="#B7C7FF" fill-opacity="1.000000" fill-rule="nonzero"/>
			<path d="M49.9 48.65L49.73 48.82L48.93 48.04L49.1 47.87C49.27 47.7 49.55 47.7 49.73 47.87L49.9 48.04C50.07 48.22 50.07 48.5 49.9 48.67L49.9 48.65Z" fill="#F8B551" fill-opacity="1.000000" fill-rule="nonzero"/>
			<path d="M50.38 47.57L50.2 47.39C49.77 46.96 49.06 46.96 48.62 47.39L43.85 52.17C43.81 52.21 43.79 52.25 43.77 52.3L43.13 54.2C43.09 54.33 43.12 54.46 43.21 54.55C43.3 54.64 43.44 54.67 43.56 54.63L45.48 54C45.53 53.98 45.57 53.95 45.61 53.92L50.38 49.15C50.82 48.71 50.82 48 50.38 47.57ZM43.99 53.78L44.24 53.03L44.74 53.53L43.99 53.78ZM45.37 53.19L44.57 52.39L47.62 49.34L48.42 50.14L45.37 53.19ZM48.9 49.67L48.1 48.87L48.44 48.53L49.24 49.33L48.9 49.67ZM49.9 48.65L49.73 48.82L48.93 48.04L49.1 47.87C49.27 47.7 49.55 47.7 49.73 47.87L49.9 48.04C50.07 48.22 50.07 48.5 49.9 48.67L49.9 48.65Z" fill="#4B5CC4" fill-opacity="1.000000" fill-rule="nonzero"/>
		</g>
	</g>
</svg>
